<?xml version="1.0" encoding="UTF-8"?>
<svg width="34px" height="36px" viewBox="0 0 34 36" version="1.1" xmlns="http://www.w3.org/2000/svg" xmlns:xlink="http://www.w3.org/1999/xlink">
    <!-- Generator: Sketch 47.1 (45422) - http://www.bohemiancoding.com/sketch -->
    <title>ac-plan</title>
    <desc>Created with Sketch.</desc>
    <defs>
        <linearGradient x1="0%" y1="100%" x2="100%" y2="0%" id="linearGradient-1">
            <stop stop-color="#89E2A4" offset="0%"></stop>
            <stop stop-color="#52AC76" offset="100%"></stop>
        </linearGradient>
    </defs>
    <g id="Symbols" stroke="none" stroke-width="1" fill="none" fill-rule="evenodd">
        <g id="card/icon/ic3" fill="url(#linearGradient-1)">
            <path d="M33.7517369,27.0004639 L25.406623,35.3524045 C25.0469358,35.712386 24.4709419,35.712386 24.1477178,35.3524045 L15.7661408,27.0004639 C15.1913829,26.4239988 15.5862972,25.4516777 16.4138249,25.4516777 L21.5940623,25.4516777 L21.5940623,0.900572135 C21.5940623,0.395855884 22.0254397,0 22.4932803,0 L26.8459898,0 C27.3490575,0 27.7445898,0.395855884 27.7445898,0.900572135 L27.7445898,25.4516777 L33.1046707,25.4516777 C33.8951173,25.4516777 34.2912677,26.4239988 33.7517369,27.0004639 Z M17.6016579,10.5470852 L12.2780401,10.5470852 L12.2780401,35.1000464 C12.2780401,35.6041441 11.8825078,36 11.3782041,36 L7.02611259,36 C6.5224269,36 6.12689458,35.6041441 6.12689458,35.1000464 L6.12689458,10.5470852 L0.911430162,10.5470852 C0.120983546,10.5470852 -0.311011907,9.57661976 0.263745992,9.00015463 L8.60885987,0.64821401 C8.9691651,0.288232565 9.54454101,0.288232565 9.8683831,0.64821401 L18.212879,9.00015463 C18.7882549,9.57661976 18.3927226,10.5470852 17.6016579,10.5470852 Z" id="ac-plan"></path>
        </g>
    </g>
</svg>