<?xml version="1.0" encoding="UTF-8"?>
<svg width="31px" height="37px" viewBox="0 0 31 37" version="1.1" xmlns="http://www.w3.org/2000/svg" xmlns:xlink="http://www.w3.org/1999/xlink">
    <!-- Generator: Sketch 47.1 (45422) - http://www.bohemiancoding.com/sketch -->
    <title>documents</title>
    <desc>Created with Sketch.</desc>
    <defs>
        <linearGradient x1="0%" y1="100%" x2="100%" y2="0%" id="linearGradient-1">
            <stop stop-color="#57BD99" offset="0%"></stop>
            <stop stop-color="#00A99A" offset="100%"></stop>
        </linearGradient>
    </defs>
    <g id="Symbols" stroke="none" stroke-width="1" fill="none" fill-rule="evenodd">
        <g id="card/icon/ic5" fill="url(#linearGradient-1)">
            <path d="M29.4910714,9.70535714 C29.6785724,9.89285808 29.8660705,10.1339271 30.0535714,10.4285714 L20.5714286,10.4285714 L20.5714286,0.946428571 C20.8660729,1.13392951 21.1071419,1.32142763 21.2946429,1.50892857 L29.4910714,9.70535714 Z M19.9285714,13 L30.8571429,13 L30.8571429,34.2142857 C30.8571429,34.7500027 30.6696447,35.2053553 30.2946429,35.5803571 C29.919641,35.955359 29.4642884,36.1428571 28.9285714,36.1428571 L1.92857143,36.1428571 C1.39285446,36.1428571 0.937501875,35.955359 0.5625,35.5803571 C0.187498125,35.2053553 0,34.7500027 0,34.2142857 L0,2.07142857 C0,1.53571161 0.187498125,1.08035902 0.5625,0.705357143 C0.937501875,0.330355268 1.39285446,0.142857143 1.92857143,0.142857143 L18,0.142857143 L18,11.0714286 C18,11.6071455 18.1874981,12.0624981 18.5625,12.4375 C18.9375019,12.8125019 19.3928545,13 19.9285714,13 Z M23.1428571,27.7857143 L23.1428571,26.5 C23.1428571,26.3124991 23.0825899,26.1584827 22.9620536,26.0379464 C22.8415173,25.9174101 22.6875009,25.8571429 22.5,25.8571429 L8.35714286,25.8571429 C8.16964192,25.8571429 8.0156256,25.9174101 7.89508929,26.0379464 C7.77455297,26.1584827 7.71428571,26.3124991 7.71428571,26.5 L7.71428571,27.7857143 C7.71428571,27.9732152 7.77455297,28.1272315 7.89508929,28.2477679 C8.0156256,28.3683042 8.16964192,28.4285714 8.35714286,28.4285714 L22.5,28.4285714 C22.6875009,28.4285714 22.8415173,28.3683042 22.9620536,28.2477679 C23.0825899,28.1272315 23.1428571,27.9732152 23.1428571,27.7857143 Z M23.1428571,22.6428571 L23.1428571,21.3571429 C23.1428571,21.1696419 23.0825899,21.0156256 22.9620536,20.8950893 C22.8415173,20.774553 22.6875009,20.7142857 22.5,20.7142857 L8.35714286,20.7142857 C8.16964192,20.7142857 8.0156256,20.774553 7.89508929,20.8950893 C7.77455297,21.0156256 7.71428571,21.1696419 7.71428571,21.3571429 L7.71428571,22.6428571 C7.71428571,22.8303581 7.77455297,22.9843744 7.89508929,23.1049107 C8.0156256,23.225447 8.16964192,23.2857143 8.35714286,23.2857143 L22.5,23.2857143 C22.6875009,23.2857143 22.8415173,23.225447 22.9620536,23.1049107 C23.0825899,22.9843744 23.1428571,22.8303581 23.1428571,22.6428571 Z M23.1428571,17.5 L23.1428571,16.2142857 C23.1428571,16.0267848 23.0825899,15.8727685 22.9620536,15.7522321 C22.8415173,15.6316958 22.6875009,15.5714286 22.5,15.5714286 L8.35714286,15.5714286 C8.16964192,15.5714286 8.0156256,15.6316958 7.89508929,15.7522321 C7.77455297,15.8727685 7.71428571,16.0267848 7.71428571,16.2142857 L7.71428571,17.5 C7.71428571,17.6875009 7.77455297,17.8415173 7.89508929,17.9620536 C8.0156256,18.0825899 8.16964192,18.1428571 8.35714286,18.1428571 L22.5,18.1428571 C22.6875009,18.1428571 22.8415173,18.0825899 22.9620536,17.9620536 C23.0825899,17.8415173 23.1428571,17.6875009 23.1428571,17.5 Z" id="documents"></path>
        </g>
    </g>
</svg>