<?xml version="1.0" encoding="UTF-8"?>
<svg width="45px" height="35px" viewBox="0 0 45 35" version="1.1" xmlns="http://www.w3.org/2000/svg" xmlns:xlink="http://www.w3.org/1999/xlink">
    <!-- Generator: Sketch 47.1 (45422) - http://www.bohemiancoding.com/sketch -->
    <title>refresh</title>
    <desc>Created with Sketch.</desc>
    <defs>
        <linearGradient x1="18.7703731%" y1="86.3844415%" x2="79.8635552%" y2="0%" id="linearGradient-1">
            <stop stop-color="#89E2A4" offset="0%"></stop>
            <stop stop-color="#52AC76" offset="100%"></stop>
        </linearGradient>
    </defs>
    <g id="Symbols" stroke="none" stroke-width="1" fill="none" fill-rule="evenodd">
        <g id="card/icon/ic4" fill="url(#linearGradient-1)">
            <path d="M22.3852436,0 L22.4518239,0 C26.80468,0.00611451614 31.1656888,1.59724749 34.595253,4.80465091 L30.5515196,8.837514 C30.5311379,8.81509411 30.5073592,8.79539178 30.4835805,8.77840701 C28.8020886,7.20018245 26.6980157,6.14169177 24.4295302,5.73269858 C17.9379522,4.56210843 11.7296801,8.87488049 10.55909,15.3630615 C10.5373495,15.4656495 10.5054181,15.5675581 10.5054181,15.6687873 C10.3742957,16.376033 10.310433,17.0927902 10.3117918,17.8109061 L15.0138547,17.8109061 L11.1202667,21.6766391 L7.49639679,25.2957533 L0,17.8000359 L4.61034517,17.8000359 C4.61306274,13.2854848 6.33056238,8.94078138 9.41567547,5.6436984 C12.9131787,1.90569086 17.6403791,0.0108702509 22.3852436,0 Z M33.498037,13.3024696 L37.1225863,9.6833554 L44.6237388,17.1899431 L40.0181494,17.1899431 C40.0181494,21.9130671 38.1430311,26.4446029 34.8011083,29.7844875 C27.8461859,36.7394099 16.5703387,36.7380512 9.61677511,29.7831287 L13.6482794,25.750945 C13.809295,25.9112812 13.9696312,26.0614266 14.1354025,26.2054574 C15.8155357,27.7863995 17.9168911,28.8455696 20.1874147,29.256601 C26.6749164,30.4319468 32.8893029,26.1246099 34.0653282,19.6371083 C34.0857099,19.5345203 34.1183207,19.4332911 34.1183207,19.3320619 C34.2487637,18.6248162 34.3126264,17.9073796 34.3099089,17.1899431 L29.6098841,17.1899431 L33.498037,13.3024696 Z" id="refresh"></path>
        </g>
    </g>
</svg>