<?xml version="1.0" encoding="UTF-8"?>
<svg width="39px" height="37px" viewBox="0 0 39 37" version="1.1" xmlns="http://www.w3.org/2000/svg" xmlns:xlink="http://www.w3.org/1999/xlink">
    <!-- Generator: Sketch 47.1 (45422) - http://www.bohemiancoding.com/sketch -->
    <title>users</title>
    <desc>Created with Sketch.</desc>
    <defs>
        <linearGradient x1="0%" y1="100%" x2="100%" y2="0%" id="linearGradient-1">
            <stop stop-color="#57BD99" offset="0%"></stop>
            <stop stop-color="#00A99A" offset="100%"></stop>
        </linearGradient>
    </defs>
    <g id="Symbols" stroke="none" stroke-width="1" fill="none" fill-rule="evenodd">
        <g id="card/icon/ic9" fill="url(#linearGradient-1)">
            <path d="M11.9129464,18.1428571 C9.74329272,18.2098218 7.9687569,19.066956 6.58928571,20.7142857 L3.89732143,20.7142857 C2.79910165,20.7142857 1.87500375,20.4430831 1.125,19.9006696 C0.37499625,19.3582562 0,18.5647374 0,17.5200893 C0,12.7923871 0.830348839,10.4285714 2.49107143,10.4285714 C2.57142897,10.4285714 2.8627207,10.569195 3.36495536,10.8504464 C3.86719001,11.1316978 4.52008527,11.4162932 5.32366071,11.7042411 C6.12723616,11.9921889 6.92410319,12.1361607 7.71428571,12.1361607 C8.61161163,12.1361607 9.50222772,11.9821444 10.3861607,11.6741071 C10.3191961,12.1696453 10.2857143,12.6116052 10.2857143,13 C10.2857143,14.8616165 10.8281196,16.575885 11.9129464,18.1428571 Z M33.4285714,30.9397321 C33.4285714,32.546883 32.939737,33.8158436 31.9620536,34.7466518 C30.9843701,35.67746 29.685276,36.1428571 28.0647321,36.1428571 L10.5066964,36.1428571 C8.88615261,36.1428571 7.58705846,35.67746 6.609375,34.7466518 C5.63169154,33.8158436 5.14285714,32.546883 5.14285714,30.9397321 C5.14285714,30.2299072 5.16629441,29.5368337 5.21316964,28.8604911 C5.26004488,28.1841484 5.35379394,27.454245 5.49441964,26.6707589 C5.63504535,25.8872729 5.81249893,25.1607176 6.02678571,24.4910714 C6.2410725,23.8214252 6.52901605,23.16853 6.890625,22.5323661 C7.25223395,21.8962022 7.66740837,21.3537969 8.13616071,20.9051339 C8.60491306,20.456471 9.17745198,20.0982156 9.85379464,19.8303571 C10.5301373,19.5624987 11.2767816,19.4285714 12.09375,19.4285714 C12.2276792,19.4285714 12.5156228,19.5725432 12.9575893,19.8604911 C13.3995558,20.1484389 13.8883902,20.4698643 14.4241071,20.8247768 C14.9598241,21.1796893 15.6763348,21.5011146 16.5736607,21.7890625 C17.4709866,22.0770104 18.3749954,22.2209821 19.2857143,22.2209821 C20.1964331,22.2209821 21.1004419,22.0770104 21.9977679,21.7890625 C22.8950938,21.5011146 23.6116045,21.1796893 24.1473214,20.8247768 C24.6830384,20.4698643 25.1718728,20.1484389 25.6138393,19.8604911 C26.0558058,19.5725432 26.3437493,19.4285714 26.4776786,19.4285714 C27.2946469,19.4285714 28.0412913,19.5624987 28.7176339,19.8303571 C29.3939766,20.0982156 29.9665155,20.456471 30.4352679,20.9051339 C30.9040202,21.3537969 31.3191946,21.8962022 31.6808036,22.5323661 C32.0424125,23.16853 32.3303561,23.8214252 32.5446429,24.4910714 C32.7589296,25.1607176 32.9363832,25.8872729 33.0770089,26.6707589 C33.2176346,27.454245 33.3113837,28.1841484 33.3582589,28.8604911 C33.4051342,29.5368337 33.4285714,30.2299072 33.4285714,30.9397321 Z M12.8571429,5.28571429 C12.8571429,6.70536424 12.3549157,7.91740569 11.3504464,8.921875 C10.3459771,9.92634431 9.13393567,10.4285714 7.71428571,10.4285714 C6.29463576,10.4285714 5.08259431,9.92634431 4.078125,8.921875 C3.07365569,7.91740569 2.57142857,6.70536424 2.57142857,5.28571429 C2.57142857,3.86606433 3.07365569,2.65402288 4.078125,1.64955357 C5.08259431,0.645084263 6.29463576,0.142857143 7.71428571,0.142857143 C9.13393567,0.142857143 10.3459771,0.645084263 11.3504464,1.64955357 C12.3549157,2.65402288 12.8571429,3.86606433 12.8571429,5.28571429 Z M27,13 C27,15.1294749 26.2466593,16.9475371 24.7399554,18.4542411 C23.2332514,19.960945 21.4151892,20.7142857 19.2857143,20.7142857 C17.1562394,20.7142857 15.3381772,19.960945 13.8314732,18.4542411 C12.3247693,16.9475371 11.5714286,15.1294749 11.5714286,13 C11.5714286,10.8705251 12.3247693,9.05246289 13.8314732,7.54575893 C15.3381772,6.03905497 17.1562394,5.28571429 19.2857143,5.28571429 C21.4151892,5.28571429 23.2332514,6.03905497 24.7399554,7.54575893 C26.2466593,9.05246289 27,10.8705251 27,13 Z M38.5714286,17.5200893 C38.5714286,18.5647374 38.1964323,19.3582562 37.4464286,19.9006696 C36.6964248,20.4430831 35.7723269,20.7142857 34.6741071,20.7142857 L31.9821429,20.7142857 C30.6026717,19.066956 28.8281358,18.2098218 26.6584821,18.1428571 C27.743309,16.575885 28.2857143,14.8616165 28.2857143,13 C28.2857143,12.6116052 28.2522325,12.1696453 28.1852679,11.6741071 C29.0692008,11.9821444 29.9598169,12.1361607 30.8571429,12.1361607 C31.6473254,12.1361607 32.4441924,11.9921889 33.2477679,11.7042411 C34.0513433,11.4162932 34.7042386,11.1316978 35.2064732,10.8504464 C35.7087079,10.569195 35.9999996,10.4285714 36.0803571,10.4285714 C37.7410797,10.4285714 38.5714286,12.7923871 38.5714286,17.5200893 Z M36,5.28571429 C36,6.70536424 35.4977729,7.91740569 34.4933036,8.921875 C33.4888343,9.92634431 32.2767928,10.4285714 30.8571429,10.4285714 C29.4374929,10.4285714 28.2254515,9.92634431 27.2209821,8.921875 C26.2165128,7.91740569 25.7142857,6.70536424 25.7142857,5.28571429 C25.7142857,3.86606433 26.2165128,2.65402288 27.2209821,1.64955357 C28.2254515,0.645084263 29.4374929,0.142857143 30.8571429,0.142857143 C32.2767928,0.142857143 33.4888343,0.645084263 34.4933036,1.64955357 C35.4977729,2.65402288 36,3.86606433 36,5.28571429 Z" id="users"></path>
        </g>
    </g>
</svg>