<?xml version="1.0" encoding="UTF-8"?>
<svg width="42px" height="35px" viewBox="0 0 42 35" version="1.1" xmlns="http://www.w3.org/2000/svg" xmlns:xlink="http://www.w3.org/1999/xlink">
    <!-- Generator: Sketch 47.1 (45422) - http://www.bohemiancoding.com/sketch -->
    <title>workflow</title>
    <desc>Created with Sketch.</desc>
    <defs>
        <linearGradient x1="0%" y1="100%" x2="100%" y2="0%" id="linearGradient-1">
            <stop stop-color="#89E2A4" offset="0%"></stop>
            <stop stop-color="#52AC76" offset="100%"></stop>
        </linearGradient>
    </defs>
    <g id="Symbols" stroke="none" stroke-width="1" fill="none" fill-rule="evenodd">
        <g id="card/icon/ic10" fill="url(#linearGradient-1)">
            <path d="M22,19.9999988 L22,15.9381062 C25.9463116,15.4460082 29,12.0796177 29,8 C29,3.581722 25.418278,0 21,0 C16.581722,0 13,3.581722 13,8 C13,12.0796177 16.0536884,15.4460082 20,15.9381062 L20,19.9999989 L5.99999992,20 C4.34314576,20.0000034 3.00000187,21.3431468 3,22.9999989 L2.99999401,27.126019 C1.27476983,27.5700639 0,29.1361627 0,31 C0,33.209139 1.790861,35 4,35 C6.209139,35 8,33.209139 8,31 C8,29.1361584 6.72522426,27.5700567 4.99999401,27.1260159 L5,23.0000015 C5.00000062,22.4477167 5.44771631,22.0000011 6.00000205,22 L20,21.9999989 L20,27.1260175 C18.2747728,27.5700603 17,29.1361606 17,31 C17,33.209139 18.790861,35 21,35 C23.209139,35 25,33.209139 25,31 C25,29.1361606 23.7252272,27.5700603 22,27.1260175 L22,21.9999988 L36.0000125,21.9999977 C36.5522959,21.9999984 37.0000097,22.4477135 37.0000079,22.9999968 L37.0000032,27.1260166 C35.2747744,27.5700583 34,29.1361594 34,31 C34,33.209139 35.790861,35 38,35 C40.209139,35 42,33.209139 42,31 C42,29.1361617 40.7252288,27.5700622 39.0000032,27.1260183 L39.0000079,23.0000011 C39.0000132,21.3431482 37.6568687,19.9999996 36.0000136,19.9999977 L22,19.9999988 Z" id="workflow"></path>
        </g>
    </g>
</svg>