<?xml version="1.0" encoding="UTF-8"?>
<svg width="31px" height="37px" viewBox="0 0 31 37" version="1.1" xmlns="http://www.w3.org/2000/svg" xmlns:xlink="http://www.w3.org/1999/xlink">
    <!-- Generator: Sketch 47.1 (45422) - http://www.bohemiancoding.com/sketch -->
    <title>audit</title>
    <desc>Created with Sketch.</desc>
    <defs>
        <linearGradient x1="0%" y1="100%" x2="100%" y2="0%" id="linearGradient-1">
            <stop stop-color="#89E2A4" offset="0%"></stop>
            <stop stop-color="#52AC76" offset="100%"></stop>
        </linearGradient>
    </defs>
    <g id="Symbols" stroke="none" stroke-width="1" fill="none" fill-rule="evenodd">
        <g id="card/icon/ic6" fill="url(#linearGradient-1)">
            <path d="M29.4910714,9.70535714 C29.6785724,9.89285808 29.8660705,10.1339271 30.0535714,10.4285714 L20.5714286,10.4285714 L20.5714286,0.946428571 C20.8660729,1.13392951 21.1071419,1.32142763 21.2946429,1.50892857 L29.4910714,9.70535714 Z M11.287342,30.1046064 C11.3191328,30.1979861 11.3748748,30.2845223 11.4545686,30.3642161 L12.3637059,31.2733534 C12.4962891,31.4059366 12.6478105,31.4722272 12.8182746,31.4722272 C12.9887387,31.4722272 13.14026,31.4059366 13.2728432,31.2733534 L23.2733534,21.2728432 C23.4059366,21.14026 23.4722272,20.9887387 23.4722272,20.8182746 C23.4722272,20.6478105 23.4059366,20.4962891 23.2733534,20.3637059 L22.3642161,19.4545686 C22.2316329,19.3219855 22.0801116,19.2556949 21.9096475,19.2556949 C21.7391834,19.2556949 21.587662,19.3219855 21.4550788,19.4545686 L12.8634559,28.0461916 L7.11189221,22.2946278 C7.02595866,22.2086943 6.91277974,22.1806988 6.77235205,22.2106405 C6.63192437,22.2405822 6.49545781,22.3218066 6.36294829,22.4543161 L5.4543161,23.3629483 C5.32180657,23.4954578 5.24058218,23.6319244 5.21064048,23.7723521 C5.18069878,23.9127797 5.20869428,24.0259587 5.29462783,24.1118922 L11.287342,30.1046064 Z M19.9285714,13 L30.8571429,13 L30.8571429,34.2142857 C30.8571429,34.7500027 30.6696447,35.2053553 30.2946429,35.5803571 C29.919641,35.955359 29.4642884,36.1428571 28.9285714,36.1428571 L1.92857143,36.1428571 C1.39285446,36.1428571 0.937501875,35.955359 0.5625,35.5803571 C0.187498125,35.2053553 0,34.7500027 0,34.2142857 L0,2.07142857 C0,1.53571161 0.187498125,1.08035902 0.5625,0.705357143 C0.937501875,0.330355268 1.39285446,0.142857143 1.92857143,0.142857143 L18,0.142857143 L18,11.0714286 C18,11.6071455 18.1874981,12.0624981 18.5625,12.4375 C18.9375019,12.8125019 19.3928545,13 19.9285714,13 Z" id="audit"></path>
        </g>
    </g>
</svg>