<?xml version="1.0" encoding="UTF-8"?>
<svg width="39px" height="36px" viewBox="0 0 39 36" version="1.1" xmlns="http://www.w3.org/2000/svg" xmlns:xlink="http://www.w3.org/1999/xlink">
    <!-- Generator: Sketch 47.1 (45422) - http://www.bohemiancoding.com/sketch -->
    <title>rule</title>
    <desc>Created with Sketch.</desc>
    <defs></defs>
    <g id="Symbols" stroke="none" stroke-width="1" fill="none" fill-rule="evenodd">
        <g id="card/icon/ic8" fill="#5FB981">
            <path d="M38.4262921,8.203125 C39.0512952,9.09375445 39.1919188,10.1015569 38.8481671,11.2265625 L32.4028546,32.4609375 C32.1059781,33.4609425 31.5083278,34.3007779 30.6098859,34.9804688 C29.7114439,35.6601596 28.7544222,36 27.7387921,36 L6.1059796,36 C4.90284859,36 3.74270394,35.5820354 2.62551085,34.7460938 C1.50831777,33.9101521 0.730981791,32.8828186 0.293479603,31.6640625 C-0.0815222716,30.6171823 -0.0971471153,29.6250047 0.246604603,28.6875 C0.246604603,28.6249997 0.270041869,28.4140643 0.316917103,28.0546875 C0.363792338,27.6953107 0.395042025,27.4062511 0.410667103,27.1875 C0.426292182,27.0624994 0.402854916,26.8945323 0.340354603,26.6835938 C0.277854291,26.4726552 0.254417025,26.320313 0.270042103,26.2265625 C0.30129226,26.0546866 0.363791635,25.8906258 0.457542103,25.734375 C0.551292572,25.5781242 0.680197533,25.3945323 0.844260853,25.1835938 C1.00832417,24.9726552 1.13722913,24.7890633 1.2309796,24.6328125 C1.5903564,24.0390595 1.94191538,23.3242229 2.2856671,22.4882813 C2.62941882,21.6523396 2.86379148,20.937503 2.9887921,20.34375 C3.03566734,20.1874992 3.03957355,19.9531266 3.00051085,19.640625 C2.96144816,19.3281234 2.95754195,19.1093756 2.9887921,18.984375 C3.03566734,18.8124991 3.16847851,18.5937513 3.3872296,18.328125 C3.6059807,18.0624987 3.73879187,17.882813 3.7856671,17.7890625 C4.11379374,17.2265597 4.44191546,16.5078169 4.7700421,15.6328125 C5.09816874,14.7578081 5.29347929,14.0546902 5.3559796,13.5234375 C5.37160468,13.3828118 5.35207363,13.1328143 5.29738585,12.7734375 C5.24269808,12.4140607 5.24660429,12.1953129 5.3091046,12.1171875 C5.37160492,11.9140615 5.5434782,11.6757826 5.8247296,11.4023438 C6.10598101,11.1289049 6.27785429,10.9531254 6.3403546,10.875 C6.63723109,10.468748 6.96925902,9.80859832 7.33644835,8.89453125 C7.70363769,7.98046418 7.91847929,7.22656547 7.9809796,6.6328125 C7.99660468,6.50781188 7.97316742,6.30859512 7.9106671,6.03515625 C7.84816679,5.76171738 7.83254195,5.5546882 7.8637921,5.4140625 C7.89504226,5.28906188 7.96535406,5.14843828 8.0747296,4.9921875 C8.18410515,4.83593672 8.32472874,4.65625102 8.4966046,4.453125 C8.66848046,4.24999898 8.80129163,4.08593813 8.8950421,3.9609375 C9.02004273,3.77343656 9.14894769,3.5351577 9.28176085,3.24609375 C9.41457402,2.9570298 9.53176035,2.68359504 9.63332335,2.42578125 C9.73488636,2.16796746 9.85988511,1.88672027 10.0083234,1.58203125 C10.1567616,1.27734223 10.3091038,1.02734473 10.4653546,0.83203125 C10.6216054,0.636717773 10.8286346,0.453125859 11.0864484,0.28125 C11.3442621,0.109374141 11.6255093,0.0195312891 11.9301984,0.01171875 C12.2348874,0.00390621094 12.6059774,0.0468745313 13.0434796,0.140625 L13.0200421,0.2109375 C13.6137951,0.0703117969 14.0122286,0 14.2153546,0 L32.0512921,0 C33.2075479,0 34.098164,0.437495625 34.7231671,1.3125 C35.3481702,2.18750438 35.4887938,3.20311922 35.1450421,4.359375 L28.7231671,25.59375 C28.1606643,27.4531343 27.6020761,28.6523411 27.0473859,29.1914062 C26.4926956,29.7304714 25.4887994,30 24.0356671,30 L3.6684796,30 C3.24660249,30 2.94973046,30.1171863 2.7778546,30.3515625 C2.60597874,30.6015638 2.59816632,30.9374979 2.7544171,31.359375 C3.12941898,32.4531305 4.25440773,33 6.1294171,33 L27.7622296,33 C28.2153569,33 28.6528525,32.8789075 29.0747296,32.6367188 C29.4966067,32.39453 29.7700415,32.0703145 29.8950421,31.6640625 L36.9262921,8.53125 C37.0356677,8.18749828 37.0747298,7.74219023 37.0434796,7.1953125 C37.6372326,7.42968867 38.0981655,7.76562281 38.4262921,8.203125 Z M13.4887921,8.25 C13.4262918,8.45312602 13.4419166,8.62890551 13.5356671,8.77734375 C13.6294176,8.92578199 13.785666,9 14.0044171,9 L28.2544171,9 C28.4575431,9 28.6567599,8.92578199 28.8520734,8.77734375 C29.0473868,8.62890551 29.1762918,8.45312602 29.2387921,8.25 L29.7309796,6.75 C29.7934799,6.54687398 29.7778551,6.37109449 29.6841046,6.22265625 C29.5903541,6.07421801 29.4341057,6 29.2153546,6 L14.9653546,6 C14.7622286,6 14.5630118,6.07421801 14.3676984,6.22265625 C14.1723849,6.37109449 14.0434799,6.54687398 13.9809796,6.75 L13.4887921,8.25 Z M11.5434796,14.25 C11.4809793,14.453126 11.4966041,14.6289055 11.5903546,14.7773438 C11.6841051,14.925782 11.8403535,15 12.0591046,15 L26.3091046,15 C26.5122306,15 26.7114474,14.925782 26.9067609,14.7773438 C27.1020743,14.6289055 27.2309793,14.453126 27.2934796,14.25 L27.7856671,12.75 C27.8481674,12.546874 27.8325426,12.3710945 27.7387921,12.2226563 C27.6450416,12.074218 27.4887932,12 27.2700421,12 L13.0200421,12 C12.8169161,12 12.6176993,12.074218 12.4223859,12.2226563 C12.2270724,12.3710945 12.0981674,12.546874 12.0356671,12.75 L11.5434796,14.25 Z" id="rule"></path>
        </g>
    </g>
</svg>