<?xml version="1.0" encoding="utf-8"?>
<!-- Generator: Adobe Illustrator 16.0.0, SVG Export Plug-In . SVG Version: 6.00 Build 0)  -->
<!DOCTYPE svg PUBLIC "-//W3C//DTD SVG 1.0//EN" "http://www.w3.org/TR/2001/REC-SVG-20010904/DTD/svg10.dtd">
<svg version="1.0" id="Layer_1" xmlns="http://www.w3.org/2000/svg" xmlns:xlink="http://www.w3.org/1999/xlink" x="0px" y="0px"
	 width="88.774px" height="88.773px" viewBox="0 0 88.774 88.773" enable-background="new 0 0 88.774 88.773" xml:space="preserve">
<linearGradient id="SVGID_1_" gradientUnits="userSpaceOnUse" x1="0" y1="44.3862" x2="88.7744" y2="44.3862">
	<stop  offset="0" style="stop-color:#57BD99"/>
	<stop  offset="0.3505" style="stop-color:#37B699"/>
	<stop  offset="1" style="stop-color:#00A99A"/>
</linearGradient>
<path fill="url(#SVGID_1_)" d="M70.101,28.632c-1.484-1.438-3.855-1.401-5.293,0.085l-28.979,29.93L20.79,44.838
	c-1.523-1.399-3.891-1.297-5.288,0.226c-1.398,1.523-1.298,3.891,0.224,5.289l17.727,16.275c0.718,0.658,1.625,0.986,2.527,0.986
	c0.981,0,1.959-0.382,2.693-1.139l31.513-32.549C71.626,32.44,71.588,30.07,70.101,28.632z M44.387,0C19.911,0,0,19.912,0,44.386
	c0,24.475,19.911,44.387,44.387,44.387c24.474,0,44.388-19.912,44.388-44.387C88.774,19.912,68.86,0,44.387,0z M44.387,81.286
	c-20.346,0-36.9-16.553-36.9-36.9c0-20.346,16.555-36.899,36.9-36.899c20.347,0,36.899,16.554,36.899,36.899
	C81.286,64.733,64.733,81.286,44.387,81.286z"/>
<g id="input-hint">
</g>
<g id="pri-btn">
</g>
</svg>
