<?xml version="1.0" encoding="utf-8"?>
<!-- Generator: Adobe Illustrator 16.0.0, SVG Export Plug-In . SVG Version: 6.00 Build 0)  -->
<!DOCTYPE svg PUBLIC "-//W3C//DTD SVG 1.1//EN" "http://www.w3.org/Graphics/SVG/1.1/DTD/svg11.dtd">
<svg version="1.1" id="Layer_1" xmlns="http://www.w3.org/2000/svg" xmlns:xlink="http://www.w3.org/1999/xlink" x="0px" y="0px"
	 width="1280px" height="700px" viewBox="0 0 1280 700" enable-background="new 0 0 1280 700" xml:space="preserve">
<g id="input-hint">
</g>
<g id="pri-btn">
</g>
<g opacity="0.5">
	<linearGradient id="SVGID_1_" gradientUnits="userSpaceOnUse" x1="246.4434" y1="163.0039" x2="287.2512" y2="122.1961">
		<stop  offset="0" style="stop-color:#57BD99"/>
		<stop  offset="0.3505" style="stop-color:#37B699"/>
		<stop  offset="1" style="stop-color:#00A99A"/>
	</linearGradient>
	<path fill="url(#SVGID_1_)" d="M250.903,117.734c4.382-4.384,9.695-6.575,15.943-6.575c6.245,0,11.56,2.191,15.943,6.575
		c4.382,4.383,6.574,9.699,6.574,15.946c0,7.86-3.226,14.008-9.672,18.44v7.406c0,0.907-0.302,1.663-0.906,2.268
		c-0.604,0.604-1.36,0.907-2.267,0.907h-19.343c-0.907,0-1.663-0.302-2.268-0.907c-0.604-0.605-0.907-1.36-0.907-2.268v-7.406
		c-6.448-4.433-9.671-10.581-9.671-18.44C244.33,127.434,246.521,122.118,250.903,117.734z M276.064,146.83
		c4.633-3.224,6.952-7.607,6.952-13.15c0-4.433-1.587-8.237-4.76-11.412s-6.978-4.761-11.409-4.761
		c-4.435,0-8.236,1.587-11.41,4.761c-3.174,3.174-4.76,6.979-4.76,11.412c0,5.543,2.316,9.926,6.952,13.15l2.72,1.965v7.406h12.997
		v-7.406L276.064,146.83z M257.175,172.375v-3.174h19.343v3.174c0,0.907-0.303,1.663-0.907,2.267
		c-0.604,0.605-1.36,0.907-2.267,0.907h-12.997c-0.906,0-1.662-0.302-2.267-0.907C257.477,174.037,257.175,173.281,257.175,172.375z
		"/>
</g>
<g opacity="0.5">
	<linearGradient id="SVGID_3_" gradientUnits="userSpaceOnUse" x1="1157.0781" y1="635.9082" x2="1199.2964" y2="593.69">
		<stop  offset="0.0112" style="stop-color:#3EB0CA"/>
		<stop  offset="0.5" style="stop-color:#0099B9"/>
		<stop  offset="0.9944" style="stop-color:#007C84"/>
	</linearGradient>
	<path fill="url(#SVGID_3_)" d="M1205.997,600.391c1.084,1.087,1.629,2.34,1.629,3.759c0,1.422-0.545,2.653-1.629,3.696
		c-1.087,1.046-2.339,1.566-3.759,1.566c-0.669,0-1.126-0.041-1.377-0.125l-9.521,9.521c0.166,0.501,0.251,0.962,0.251,1.379
		c0,1.422-0.546,2.652-1.629,3.695c-1.086,1.047-2.339,1.566-3.758,1.566c-1.422,0-2.675-0.52-3.759-1.566
		c-1.085-1.043-1.629-2.273-1.629-3.695c0-0.417,0.083-0.878,0.251-1.379l-6.89-6.891c-0.501,0.169-0.96,0.25-1.378,0.25
		s-0.876-0.081-1.377-0.25l-12.151,12.152c0.166,0.502,0.25,0.963,0.25,1.379c0,1.422-0.543,2.675-1.629,3.759
		c-1.085,1.087-2.338,1.629-3.757,1.629c-1.421,0-2.674-0.542-3.759-1.629c-1.085-1.084-1.627-2.337-1.627-3.759
		c0-1.419,0.542-2.65,1.627-3.696c1.085-1.043,2.338-1.565,3.759-1.565c0.667,0,1.128,0.043,1.378,0.125l12.15-12.154
		c-0.084-0.25-0.125-0.707-0.125-1.377c0-1.42,0.521-2.672,1.566-3.76c1.043-1.084,2.273-1.629,3.694-1.629
		c1.419,0,2.672,0.545,3.759,1.629c1.084,1.088,1.629,2.34,1.629,3.76c0,0.67-0.044,1.127-0.126,1.377l6.765,6.767
		c0.251-0.081,0.708-0.126,1.378-0.126c0.667,0,1.126,0.045,1.377,0.126l9.521-9.397c-0.167-0.501-0.25-0.958-0.25-1.378
		c0-1.419,0.541-2.672,1.628-3.759c1.084-1.084,2.337-1.629,3.758-1.629C1203.658,598.762,1204.91,599.307,1205.997,600.391z"/>
</g>
<g>
	<linearGradient id="SVGID_4_" gradientUnits="userSpaceOnUse" x1="133.0215" y1="606.8477" x2="172.0458" y2="567.8234">
		<stop  offset="0.0112" style="stop-color:#3EB0CA"/>
		<stop  offset="0.5" style="stop-color:#0099B9"/>
		<stop  offset="0.9944" style="stop-color:#007C84"/>
	</linearGradient>
	<path fill="url(#SVGID_4_)" d="M133.023,567.785c5.417-5.37,11.916-8.057,19.492-8.057c7.575,0,14.073,2.687,19.492,8.057
		c5.417,5.373,8.127,11.896,8.127,19.568c0,7.676-2.71,14.197-8.127,19.568c-5.419,5.373-11.917,8.057-19.492,8.057
		c-7.577,0-14.05-2.684-19.42-8.057l4.316-4.461c4.219,4.223,9.253,6.331,15.104,6.331c5.945,0,11.027-2.087,15.248-6.259
		c4.219-4.173,6.33-9.23,6.33-15.18c0-5.946-2.111-11.007-6.33-15.18c-4.221-4.172-9.303-6.258-15.248-6.258
		c-5.948,0-11.004,2.086-15.176,6.258c-4.172,4.173-6.258,9.233-6.258,15.18h9.207l-12.371,12.374l-0.288-0.432l-11.94-11.942h9.207
		C124.896,579.681,127.604,573.158,133.023,567.785z M149.494,575.123h4.604v12.95l10.789,6.475l-2.302,3.741l-13.09-7.914V575.123z
		"/>
</g>
<g opacity="0.5">
	<linearGradient id="SVGID_5_" gradientUnits="userSpaceOnUse" x1="936.1035" y1="352.8018" x2="982.95" y2="305.9552">
		<stop  offset="0" style="stop-color:#64C8D3"/>
		<stop  offset="0.2157" style="stop-color:#37BFCB"/>
		<stop  offset="0.5" style="stop-color:#00B3C1"/>
		<stop  offset="0.6818" style="stop-color:#00AFB1"/>
		<stop  offset="1" style="stop-color:#00A99A"/>
	</linearGradient>
	<path fill="url(#SVGID_5_)" d="M929.447,319.35v-6.738h6.735v6.738H929.447z M929.447,332.67v-6.582h6.735v6.582H929.447z
		 M929.447,346.146v-6.738h6.735v6.738H929.447z M942.762,312.611h46.843v6.738h-46.843V312.611z M942.762,332.67v-6.582h46.843
		v6.582H942.762z M942.762,346.146v-6.738h46.843v6.738H942.762z"/>
</g>
<g>
	<linearGradient id="SVGID_6_" gradientUnits="userSpaceOnUse" x1="954.1821" y1="114.8657" x2="998.5427" y2="70.5051">
		<stop  offset="0" style="stop-color:#89E2A4"/>
		<stop  offset="1" style="stop-color:#52AC76"/>
	</linearGradient>
	<path fill="url(#SVGID_6_)" d="M950.476,111.159l-4.437-4.437l22.18-22.183L980,96.463l20.932-23.569l4.155,4.159L980,105.336
		l-11.781-11.923L950.476,111.159z"/>
</g>
</svg>
